<?xml version="1.0" encoding="UTF-8"?>
<svg width="166px" height="49px" viewBox="0 0 166 49" version="1.1" xmlns="http://www.w3.org/2000/svg" xmlns:xlink="http://www.w3.org/1999/xlink">
    <!-- Generator: Sketch 50.2 (55047) - http://www.bohemiancoding.com/sketch -->
    <title>badge_android</title>
    <desc>Created with Sketch.</desc>
    <defs></defs>
    <g id="APK-download-mobile" stroke="none" stroke-width="1" fill="none" fill-rule="evenodd">
        <g id="1-mobile-footer-CTA" transform="translate(-106.000000, -605.000000)">
            <g id="Group-6" transform="translate(28.000000, 437.000000)">
                <g id="Group-7" transform="translate(77.000000, 168.000000)">
                    <g id="badge_android" transform="translate(1.000000, 0.000000)">
                        <rect id="Rectangle-4" fill="#000000" x="0" y="0" width="166" height="48.5853659" rx="6"></rect>
                        <path d="M58.6302163,15.1829268 L58.6302163,7.26724466 L60.9679521,7.26724466 C61.6674641,7.26724466 62.2881358,7.42309216 62.8299858,7.73479183 C63.3718358,8.04649149 63.7913555,8.48866345 64.0885575,9.06132098 C64.3857596,9.6339785 64.5343583,10.2899877 64.5343583,11.0293683 L64.5343583,11.4262398 C64.5343583,12.1764936 64.3848535,12.8361272 64.0858392,13.4051603 C63.786825,13.9741934 63.3609627,14.412741 62.8082394,14.7208163 C62.2555162,15.0288915 61.6221592,15.1829268 60.9081495,15.1829268 L58.6302163,15.1829268 Z M60.0056748,8.37631002 L60.0056748,14.0847347 L60.9027129,14.0847347 C61.6239715,14.0847347 62.1775925,13.8591182 62.5635927,13.4078786 C62.9495928,12.956639 63.1462144,12.3087846 63.1534632,11.4642959 L63.1534632,11.0239317 C63.1534632,10.1649454 62.9668087,9.50893622 62.593494,9.05588438 C62.2201792,8.60283254 61.6783374,8.37631002 60.9679521,8.37631002 L60.0056748,8.37631002 Z M65.5292552,12.187363 C65.5292552,11.6110811 65.6434225,11.0918915 65.8717607,10.6297786 C66.1000988,10.1676657 66.4208547,9.81247842 66.834038,9.56420601 C67.2472212,9.3159336 67.7220125,9.19179926 68.2584258,9.19179926 C69.0521727,9.19179926 69.6964027,9.44731666 70.1911353,9.95835914 C70.6858679,10.4694016 70.9531645,11.147157 70.9930331,11.9916456 L70.9984697,12.3015315 C70.9984697,12.8814379 70.8870206,13.3997214 70.6641191,13.8563977 C70.4412176,14.3130739 70.1222739,14.6664491 69.7072784,14.9165337 C69.2922829,15.1666183 68.8129612,15.2916587 68.269299,15.2916587 C67.439308,15.2916587 66.775144,15.0153013 66.276787,14.462578 C65.77843,13.9098548 65.5292552,13.1732035 65.5292552,12.2526022 L65.5292552,12.187363 Z M66.8503478,12.3015315 C66.8503478,12.9068088 66.9753882,13.3806939 67.2254728,13.7232011 C67.4755574,14.0657083 67.823496,14.2369593 68.269299,14.2369593 C68.715102,14.2369593 69.0621345,14.06299 69.3104069,13.7150462 C69.5586793,13.3671024 69.6828137,12.8578798 69.6828137,12.187363 C69.6828137,11.592959 69.555055,11.1217922 69.2995338,10.7738484 C69.0440125,10.4259046 68.69698,10.2519353 68.2584258,10.2519353 C67.8271205,10.2519353 67.4846184,10.4231863 67.2309094,10.7656935 C66.9772004,11.1082007 66.8503478,11.6201416 66.8503478,12.3015315 Z M77.2831734,13.3616675 L78.2182677,9.30053115 L79.5067407,9.30053115 L77.9029452,15.1829268 L76.8156262,15.1829268 L75.5543362,11.1435368 L74.3147925,15.1829268 L73.2274736,15.1829268 L71.6182415,9.30053115 L72.9067145,9.30053115 L73.8581186,13.3181748 L75.0650426,9.30053115 L76.0599395,9.30053115 L77.2831734,13.3616675 Z M81.6161395,9.30053115 L81.6541956,9.98010552 C82.0891254,9.45456538 82.6599622,9.19179926 83.366723,9.19179926 C84.5917752,9.19179926 85.2151652,9.89311298 85.2369117,11.2957615 L85.2369117,15.1829268 L83.9158191,15.1829268 L83.9158191,11.3718738 C83.9158191,10.9985591 83.8351771,10.7222016 83.6738906,10.5427931 C83.5126042,10.3633846 83.248932,10.2736816 82.8828661,10.2736816 C82.3500771,10.2736816 81.9532097,10.5147016 81.6922518,10.9967488 L81.6922518,15.1829268 L80.3711593,15.1829268 L80.3711593,9.30053115 L81.6161395,9.30053115 Z M87.9878287,15.1829268 L86.6667361,15.1829268 L86.6667361,6.83231707 L87.9878287,6.83231707 L87.9878287,15.1829268 Z M89.178443,12.187363 C89.178443,11.6110811 89.2926103,11.0918915 89.5209485,10.6297786 C89.7492866,10.1676657 90.0700425,9.81247842 90.4832258,9.56420601 C90.896409,9.3159336 91.3712002,9.19179926 91.9076136,9.19179926 C92.7013604,9.19179926 93.3455905,9.44731666 93.8403231,9.95835914 C94.3350557,10.4694016 94.6023523,11.147157 94.6422208,11.9916456 L94.6476574,12.3015315 C94.6476574,12.8814379 94.5362084,13.3997214 94.3133069,13.8563977 C94.0904053,14.3130739 93.7714616,14.6664491 93.3564662,14.9165337 C92.9414707,15.1666183 92.462149,15.2916587 91.9184868,15.2916587 C91.0884958,15.2916587 90.4243318,15.0153013 89.9259748,14.462578 C89.4276178,13.9098548 89.178443,13.1732035 89.178443,12.2526022 L89.178443,12.187363 Z M90.4995355,12.3015315 C90.4995355,12.9068088 90.624576,13.3806939 90.8746606,13.7232011 C91.1247452,14.0657083 91.4726838,14.2369593 91.9184868,14.2369593 C92.3642898,14.2369593 92.7113223,14.06299 92.9595947,13.7150462 C93.2078671,13.3671024 93.3320015,12.8578798 93.3320015,12.187363 C93.3320015,11.592959 93.2042428,11.1217922 92.9487215,10.7738484 C92.6932003,10.4259046 92.3461678,10.2519353 91.9076136,10.2519353 C91.4763083,10.2519353 91.1338062,10.4231863 90.8800972,10.7656935 C90.6263881,11.1082007 90.4995355,11.6201416 90.4995355,12.3015315 Z M99.2796363,15.1829268 C99.2216457,15.07057 99.1709046,14.8875398 99.1274116,14.6338307 C98.7069795,15.0723849 98.1923204,15.2916587 97.5834187,15.2916587 C96.9926391,15.2916587 96.5105992,15.123126 96.1372844,14.7860554 C95.7639697,14.4489848 95.5773152,14.0321834 95.5773152,13.5356386 C95.5773152,12.9086148 95.8101803,12.427481 96.2759176,12.0922226 C96.7416549,11.7569643 97.4076311,11.5893376 98.2738662,11.5893376 L99.0839189,11.5893376 L99.0839189,11.2033394 C99.0839189,10.8988885 98.9987464,10.6551503 98.8283989,10.4721174 C98.6580514,10.2890844 98.3989097,10.1975693 98.0509658,10.1975693 C97.7501394,10.1975693 97.5036829,10.2727748 97.3115889,10.423188 C97.119495,10.5736012 97.0234494,10.7647862 97.0234494,10.9967488 L95.7023569,10.9967488 C95.7023569,10.6741759 95.8092755,10.3724479 96.0231159,10.0915557 C96.2369564,9.81066357 96.5278113,9.59048368 96.8956894,9.43100943 C97.2635675,9.27153518 97.6740263,9.19179926 98.1270782,9.19179926 C98.815717,9.19179926 99.3648076,9.36486246 99.7743664,9.71099407 C100.183925,10.0571257 100.394138,10.5436961 100.405011,11.1707198 L100.405011,13.8237781 C100.405011,14.3529427 100.479311,14.7751806 100.627912,15.0905047 L100.627912,15.1829268 L99.2796363,15.1829268 Z M97.8280655,14.2315227 C98.0890233,14.2315227 98.3345737,14.1680964 98.5647241,14.0412419 C98.7948744,13.9143874 98.9679376,13.7440425 99.0839189,13.530202 L99.0839189,12.4211366 L98.3717249,12.4211366 C97.882429,12.4211366 97.5145564,12.5063091 97.2680962,12.6766566 C97.021636,12.8470041 96.8984077,13.088024 96.8984077,13.3997237 C96.8984077,13.6534327 96.9826741,13.8554908 97.1512094,14.005904 C97.3197447,14.1563172 97.5453611,14.2315227 97.8280655,14.2315227 Z M101.54126,12.1982362 C101.54126,11.2921326 101.751473,10.5645422 102.171905,10.0154434 C102.592337,9.46634455 103.155925,9.19179926 103.862686,9.19179926 C104.486085,9.19179926 104.989871,9.40926088 105.374059,9.84419064 L105.374059,6.83231707 L106.695152,6.83231707 L106.695152,15.1829268 L105.499101,15.1829268 L105.433862,14.5740282 C105.038801,15.0524509 104.511456,15.2916587 103.851813,15.2916587 C103.163174,15.2916587 102.605928,15.0143952 102.18006,14.4598597 C101.754191,13.9053243 101.54126,13.1514573 101.54126,12.1982362 Z M102.862352,12.3124047 C102.862352,12.9104332 102.977426,13.3770695 103.207576,13.7123279 C103.437726,14.0475863 103.764825,14.2152129 104.188881,14.2152129 C104.728919,14.2152129 105.123975,13.974193 105.374059,13.4921458 L105.374059,10.980439 C105.131223,10.5092651 104.739792,10.2736816 104.199755,10.2736816 C103.772074,10.2736816 103.442257,10.4431205 103.210294,10.7820033 C102.978332,11.120886 102.862352,11.6310148 102.862352,12.3124047 Z M111.310821,15.1829268 L111.310821,10.2791182 L110.413783,10.2791182 L110.413783,9.30053115 L111.310821,9.30053115 L111.310821,8.76230826 C111.310821,8.10991361 111.492039,7.60612752 111.85448,7.25093488 C112.216922,6.89574224 112.724332,6.71814858 113.376727,6.71814858 C113.608689,6.71814858 113.855146,6.75076782 114.116104,6.81600729 L114.083484,7.84896032 C113.938508,7.819965 113.769975,7.80546756 113.577881,7.80546756 C112.947233,7.80546756 112.631913,8.12984781 112.631913,8.77861804 L112.631913,9.30053115 L113.827964,9.30053115 L113.827964,10.2791182 L112.631913,10.2791182 L112.631913,15.1829268 L111.310821,15.1829268 Z M114.545595,12.187363 C114.545595,11.6110811 114.659762,11.0918915 114.8881,10.6297786 C115.116438,10.1676657 115.437194,9.81247842 115.850378,9.56420601 C116.263561,9.3159336 116.738352,9.19179926 117.274765,9.19179926 C118.068512,9.19179926 118.712742,9.44731666 119.207475,9.95835914 C119.702207,10.4694016 119.969504,11.147157 120.009373,11.9916456 L120.014809,12.3015315 C120.014809,12.8814379 119.90336,13.3997214 119.680459,13.8563977 C119.457557,14.3130739 119.138613,14.6664491 118.723618,14.9165337 C118.308622,15.1666183 117.829301,15.2916587 117.285639,15.2916587 C116.455648,15.2916587 115.791484,15.0153013 115.293127,14.462578 C114.79477,13.9098548 114.545595,13.1732035 114.545595,12.2526022 L114.545595,12.187363 Z M115.866687,12.3015315 C115.866687,12.9068088 115.991728,13.3806939 116.241812,13.7232011 C116.491897,14.0657083 116.839836,14.2369593 117.285639,14.2369593 C117.731442,14.2369593 118.078474,14.06299 118.326746,13.7150462 C118.575019,13.3671024 118.699153,12.8578798 118.699153,12.187363 C118.699153,11.592959 118.571395,11.1217922 118.315873,10.7738484 C118.060352,10.4259046 117.71332,10.2519353 117.274765,10.2519353 C116.84346,10.2519353 116.500958,10.4231863 116.247249,10.7656935 C115.99354,11.1082007 115.866687,11.6201416 115.866687,12.3015315 Z M124.21186,10.5074552 C124.037889,10.4784599 123.858483,10.4639625 123.673638,10.4639625 C123.06836,10.4639625 122.66062,10.6959215 122.450404,11.1598466 L122.450404,15.1829268 L121.129311,15.1829268 L121.129311,9.30053115 L122.390601,9.30053115 L122.423221,9.95835914 C122.742169,9.44731666 123.184341,9.19179926 123.74975,9.19179926 C123.938219,9.19179926 124.094067,9.21716978 124.217297,9.26791159 L124.21186,10.5074552 Z" id="Download-for" fill="#FFFFFF"></path>
                        <path d="M68.7697255,36.1479207 L62.3491819,36.1479207 L61.0058767,40.0070772 L58.0118998,40.0070772 L64.2730682,23.4320569 L66.8572231,23.4320569 L73.1297755,40.0070772 L70.1244147,40.0070772 L68.7697255,36.1479207 Z M63.1574418,33.8255964 L67.9614656,33.8255964 L65.5594537,26.9496951 L63.1574418,33.8255964 Z M77.246968,27.6896514 L77.3266556,29.1126442 C78.2373756,28.0121909 79.4326776,27.4619725 80.9125976,27.4619725 C83.4777921,27.4619725 84.7831378,28.9304864 84.8286738,31.8675583 L84.8286738,40.0070772 L82.0623758,40.0070772 L82.0623758,32.0269335 C82.0623758,31.2452322 81.8935156,30.6665542 81.5557903,30.2908823 C81.218065,29.9152103 80.6659493,29.7273771 79.8994267,29.7273771 C78.7837947,29.7273771 77.9527752,30.2320602 77.4063432,31.2414415 L77.4063432,40.0070772 L74.6400452,40.0070772 L74.6400452,27.6896514 L77.246968,27.6896514 Z M87.6139451,33.7572928 C87.6139451,31.8599595 88.0541198,30.3364238 88.9344824,29.1866398 C89.814845,28.0368559 90.9949686,27.4619725 92.4748885,27.4619725 C93.7802538,27.4619725 94.8351553,27.9173257 95.6396246,28.8280456 L95.6396246,22.5213415 L98.4059226,22.5213415 L98.4059226,40.0070772 L95.9014552,40.0070772 L95.7648479,38.7320757 C94.9376106,39.7338676 93.8333793,40.2347561 92.4521206,40.2347561 C91.0101474,40.2347561 89.8433049,39.6541808 88.9515583,38.4930129 C88.0598117,37.3318449 87.6139451,35.7532874 87.6139451,33.7572928 Z M90.3802431,33.9963556 C90.3802431,35.2485955 90.6212008,36.2257075 91.1031235,36.9277208 C91.5850461,37.6297341 92.2699731,37.9807355 93.1579251,37.9807355 C94.2887357,37.9807355 95.1159606,37.4760524 95.6396246,36.4666711 L95.6396246,31.2072896 C95.1311393,30.2206764 94.3115036,29.7273771 93.180693,29.7273771 C92.2851517,29.7273771 91.5945327,30.0821731 91.1088154,30.7917757 C90.6230981,31.5013784 90.3802431,32.569561 90.3802431,33.9963556 Z M108.22647,30.2168866 C107.862182,30.156172 107.486516,30.1258151 107.09946,30.1258151 C105.832041,30.1258151 104.978254,30.6115251 104.538073,31.5829597 L104.538073,40.0070772 L101.771775,40.0070772 L101.771775,27.6896514 L104.41285,27.6896514 L104.481153,29.0671084 C105.149015,27.9970125 106.074899,27.4619725 107.258835,27.4619725 C107.653481,27.4619725 107.979817,27.5150971 108.237854,27.6213477 L108.22647,30.2168866 Z M109.531829,33.7345249 C109.531829,32.5278209 109.77089,31.4406653 110.249017,30.4730253 C110.727145,29.5053854 111.398791,28.7616419 112.263975,28.2417726 C113.129159,27.7219033 114.123347,27.4619725 115.246568,27.4619725 C116.908632,27.4619725 118.257616,27.9970125 119.29356,29.0671084 C120.329504,30.1372044 120.889209,31.5563884 120.972691,33.324703 L120.984075,33.9735877 C120.984075,35.187881 120.750707,36.2731393 120.283963,37.2293953 C119.817219,38.1856512 119.149368,38.9256001 118.280389,39.4492641 C117.41141,39.972928 116.407736,40.2347561 115.269336,40.2347561 C113.531379,40.2347561 112.140654,39.6560781 111.097121,38.4987049 C110.053588,37.3413316 109.531829,35.7988228 109.531829,33.8711322 L109.531829,33.7345249 Z M112.298127,33.9735877 C112.298127,35.2410063 112.559955,36.2332967 113.083619,36.9504887 C113.607283,37.6676806 114.335848,38.0262712 115.269336,38.0262712 C116.202824,38.0262712 116.929492,37.6619887 117.449361,36.9334128 C117.96923,36.2048368 118.229161,35.1385515 118.229161,33.7345249 C118.229161,32.4898743 117.961641,31.5032758 117.426593,30.7746998 C116.891545,30.0461239 116.164878,29.6818413 115.246568,29.6818413 C114.343438,29.6818413 113.626256,30.0404319 113.095003,30.7576239 C112.56375,31.4748159 112.298127,32.5467931 112.298127,33.9735877 Z M126.75194,40.0070772 L123.985642,40.0070772 L123.985642,27.6896514 L126.75194,27.6896514 L126.75194,40.0070772 Z M123.814882,24.4907635 C123.814882,24.0657609 123.949591,23.7128622 124.219012,23.4320569 C124.488434,23.1512515 124.873587,23.010851 125.374482,23.010851 C125.875378,23.010851 126.262429,23.1512515 126.535645,23.4320569 C126.808861,23.7128622 126.945467,24.0657609 126.945467,24.4907635 C126.945467,24.9081768 126.808861,25.2553836 126.535645,25.5323943 C126.262429,25.8094049 125.875378,25.9479082 125.374482,25.9479082 C124.873587,25.9479082 124.488434,25.8094049 124.219012,25.5323943 C123.949591,25.2553836 123.814882,24.9081768 123.814882,24.4907635 Z M129.730738,33.7572928 C129.730738,31.8599595 130.170913,30.3364238 131.051275,29.1866398 C131.931638,28.0368559 133.111761,27.4619725 134.591681,27.4619725 C135.897047,27.4619725 136.951948,27.9173257 137.756417,28.8280456 L137.756417,22.5213415 L140.522715,22.5213415 L140.522715,40.0070772 L138.018248,40.0070772 L137.881641,38.7320757 C137.054403,39.7338676 135.950172,40.2347561 134.568913,40.2347561 C133.12694,40.2347561 131.960098,39.6541808 131.068351,38.4930129 C130.176604,37.3318449 129.730738,35.7532874 129.730738,33.7572928 Z M132.497036,33.9963556 C132.497036,35.2485955 132.737994,36.2257075 133.219916,36.9277208 C133.701839,37.6297341 134.386766,37.9807355 135.274718,37.9807355 C136.405528,37.9807355 137.232753,37.4760524 137.756417,36.4666711 L137.756417,31.2072896 C137.247932,30.2206764 136.428296,29.7273771 135.297486,29.7273771 C134.401944,29.7273771 133.711326,30.0821731 133.225608,30.7917757 C132.739891,31.5013784 132.497036,32.569561 132.497036,33.9963556 Z" id="Android" fill="#FFFFFF"></path>
                        <path d="M20.2439024,34.4146341 L20.2439024,19.2317073 L38.4634146,19.2317073 L38.4634146,34.4146341 C38.4634146,35.2496951 37.7801829,35.9329268 36.945122,35.9329268 L35.4268293,35.9329268 L35.4268293,41.2469512 C35.4268293,42.5071341 34.4095732,43.5243902 33.1493902,43.5243902 C31.8892073,43.5243902 30.8719512,42.5071341 30.8719512,41.2469512 L30.8719512,35.9329268 L27.8353659,35.9329268 L27.8353659,41.2469512 C27.8353659,42.5071341 26.8181098,43.5243902 25.5579268,43.5243902 C24.2977439,43.5243902 23.2804878,42.5071341 23.2804878,41.2469512 L23.2804878,35.9329268 L21.7621951,35.9329268 C20.9271341,35.9329268 20.2439024,35.2496951 20.2439024,34.4146341 Z M16.4481707,19.2317073 C17.7083537,19.2317073 18.7256098,20.2489634 18.7256098,21.5091463 L18.7256098,32.1371951 C18.7256098,33.397378 17.7083537,34.4146341 16.4481707,34.4146341 C15.1879878,34.4146341 14.1707317,33.397378 14.1707317,32.1371951 L14.1707317,21.5091463 C14.1707317,20.2489634 15.1879878,19.2317073 16.4481707,19.2317073 Z M42.2591463,19.2317073 C43.5193293,19.2317073 44.5365854,20.2489634 44.5365854,21.5091463 L44.5365854,32.1371951 C44.5365854,33.397378 43.5193293,34.4146341 42.2591463,34.4146341 C40.9989634,34.4146341 39.9817073,33.397378 39.9817073,32.1371951 L39.9817073,21.5091463 C39.9817073,20.2489634 40.9989634,19.2317073 42.2591463,19.2317073 Z M36.6870122,8.39109756 L34.7132317,10.364878 C36.9906707,12.0198171 38.4634146,14.6920122 38.4634146,17.7134146 L20.2439024,17.7134146 C20.2439024,14.6920122 21.7166463,12.035 23.9637195,10.380061 L21.9747561,8.39109756 C21.6710976,8.08743902 21.6710976,7.61676829 21.9747561,7.31310976 C22.2784146,7.00945122 22.7490854,7.00945122 23.0527439,7.31310976 L25.315,9.56018293 C26.5296341,8.95286585 27.8960976,8.60365854 29.3536585,8.60365854 C30.7960366,8.60365854 32.1625,8.95286585 33.3619512,9.56018293 L35.6090244,7.31310976 C35.9126829,7.00945122 36.3833537,7.00945122 36.6870122,7.31310976 C36.9906707,7.61676829 36.9906707,8.08743902 36.6870122,8.39109756 Z M25.5579268,14.6768293 C25.9771918,14.6768293 26.3170732,14.3369479 26.3170732,13.9176829 C26.3170732,13.498418 25.9771918,13.1585366 25.5579268,13.1585366 C25.1386619,13.1585366 24.7987805,13.498418 24.7987805,13.9176829 C24.7987805,14.3369479 25.1386619,14.6768293 25.5579268,14.6768293 Z M33.1493902,14.6768293 C33.5686552,14.6768293 33.9085366,14.3369479 33.9085366,13.9176829 C33.9085366,13.498418 33.5686552,13.1585366 33.1493902,13.1585366 C32.7301253,13.1585366 32.3902439,13.498418 32.3902439,13.9176829 C32.3902439,14.3369479 32.7301253,14.6768293 33.1493902,14.6768293 Z" id="Shape" fill="#FFFFFF" fill-rule="nonzero"></path>
                    </g>
                </g>
            </g>
        </g>
    </g>
</svg>